<svg width="14" height="11" viewBox="0 0 14 11" fill="none" xmlns="http://www.w3.org/2000/svg">
<g clip-path="url(#clip0_197_213)">
<path d="M0.704622 2.15306C1.80519 2.15306 2.90575 2.15306 4.0067 2.15306H4.1806C4.21756 1.87541 4.26113 1.60492 4.28758 1.33255C4.33893 0.809239 4.67778 0.501501 5.22125 0.500748C6.4183 0.49962 7.61573 0.499244 8.81277 0.500748C9.36286 0.501501 9.69704 0.815635 9.74022 1.34947C9.76162 1.61357 9.8083 1.87579 9.84526 2.15306H10.0227C11.1329 2.15306 12.2432 2.15306 13.3535 2.15306C13.7741 2.15306 13.9966 2.36787 13.9966 2.77267C13.9966 5.11043 13.9931 7.44819 14.0005 9.78595C14.0016 10.1347 13.8857 10.3822 13.5333 10.5H0.464202C0.233119 10.4244 0.0848989 10.269 0.000479698 10.0519V2.60112C0.159982 2.23432 0.287582 2.15306 0.705011 2.15306H0.704622ZM6.98433 9.75397C9.00262 9.76639 10.5716 8.18255 10.558 6.29398C10.5794 4.53258 9.07965 2.88704 7.02051 2.86936C5.15551 2.85318 3.45156 4.26396 3.43639 6.3237C3.42277 8.1596 4.9536 9.74156 6.98395 9.75397H6.98433ZM0.677001 3.63156H3.70131V2.7802H0.677001V3.63156Z" fill="black"/>
<path d="M6.98628 8.41091C8.18916 8.41504 9.16757 7.46775 9.16601 6.30075C9.16446 5.14353 8.18877 4.2 6.99212 4.19812C5.79235 4.19624 4.81044 5.14654 4.81044 6.3094C4.81044 7.46399 5.78652 8.40677 6.98628 8.41091Z" fill="black"/>
</g>
<defs>
<clipPath id="clip0_197_213">
<rect width="14" height="10" fill="white" transform="matrix(-1 0 0 1 14 0.5)"/>
</clipPath>
</defs>
</svg>
