<svg width="29" height="23" viewBox="0 0 29 23" fill="none" xmlns="http://www.w3.org/2000/svg">
<path d="M28.996 17.4075C28.996 17.2813 28.996 17.1551 28.996 17.0288C28.996 16.5829 28.996 16.137 28.996 15.6911C28.996 15.5648 28.996 15.4386 28.996 15.3123C28.996 15.2329 28.996 15.1535 28.996 15.0741C28.9317 13.7771 28.7628 12.4943 28.4913 11.2237C27.8197 8.07789 26.5368 5.19877 24.7834 2.52531C24.6507 2.32373 24.4918 2.19545 24.2766 2.09975C22.4729 1.29955 20.5989 0.739605 18.6625 0.385315C18.5519 0.391423 18.5297 0.489159 18.4935 0.56246C18.2985 0.957473 18.0994 1.35249 17.9185 1.75564C17.8541 1.89614 17.8038 1.95519 17.6289 1.92872C16.5913 1.7699 15.5457 1.70474 14.4981 1.70474C13.4585 1.70474 12.4209 1.76786 11.3914 1.93075C11.2265 1.95722 11.1782 1.89817 11.1179 1.7699C10.9289 1.36267 10.7258 0.961546 10.5247 0.558388C10.4885 0.485086 10.4644 0.387351 10.3538 0.387351C10.2854 0.40364 10.217 0.421966 10.1487 0.436219C8.24042 0.778292 6.40656 1.36267 4.63503 2.15473C4.49427 2.21785 4.3877 2.30337 4.30325 2.43572C3.91918 3.03231 3.54919 3.63705 3.20132 4.25604C0.671721 8.76407 -0.363847 13.5979 0.112716 18.7595C0.12277 18.8715 0.156954 18.9469 0.249451 19.0141C2.40906 20.59 4.74965 21.7975 7.29534 22.5936C7.43207 22.6364 7.50647 22.618 7.58891 22.502C8.09966 21.7812 8.56014 21.0298 8.97235 20.2459C9.04876 20.1014 9.02262 20.0545 8.87583 19.9975C8.22433 19.7511 7.59495 19.4518 6.98567 19.1098C6.58954 18.8878 6.59557 18.8939 6.94545 18.5987C7.10431 18.4643 7.23099 18.4317 7.4381 18.5254C9.43484 19.4254 11.5261 19.9487 13.7098 20.0525C16.3661 20.1787 18.9239 19.7063 21.359 18.6211C21.7511 18.446 22.0105 18.4724 22.3 18.7595C22.4186 18.8756 22.4146 18.9021 22.2799 18.9794C21.6043 19.3622 20.9105 19.7084 20.1866 19.9833C20.0298 20.0423 19.9695 20.0851 20.068 20.2724C20.4702 21.0237 20.9126 21.7506 21.3992 22.449C21.5057 22.6018 21.5982 22.6404 21.7832 22.5834C24.2927 21.7812 26.6092 20.5961 28.7467 19.0405C28.8774 18.9448 28.9256 18.8328 28.9337 18.6842C28.9538 18.336 28.9779 17.9899 29 17.6437C29 17.5643 28.998 17.4849 28.996 17.4055V17.4075ZM11.3934 14.842C10.2894 15.9049 8.69084 15.7623 7.73369 14.5345C6.81475 13.3556 6.90122 11.5455 7.93075 10.4643C9.19153 9.13873 11.2908 9.57243 12.0429 11.3133C12.2198 11.7246 12.3083 12.1543 12.3023 12.4067C12.2942 13.4717 12.0228 14.2393 11.3954 14.842H11.3934ZM21.0815 14.7952C19.9031 15.9944 18.0532 15.7297 17.1704 14.2352C16.8708 13.7282 16.7281 13.1764 16.7341 12.423C16.7642 11.6289 17.092 10.8084 17.8521 10.2097C18.8515 9.42175 20.2249 9.53374 21.1076 10.4541C22.2276 11.6208 22.2135 13.6427 21.0795 14.7972L21.0815 14.7952Z" fill="#F5F5F5"/>
</svg>
