<svg width="14" height="15" viewBox="0 0 14 15" fill="none" xmlns="http://www.w3.org/2000/svg">
<g clip-path="url(#clip0_108_6616)">
<path d="M12.3899 14.5H12.2668C12.1962 14.4945 12.1256 14.4891 12.0549 14.4828C11.7845 14.4602 11.5195 14.4089 11.2605 14.3232C11.2142 14.3076 11.1861 14.278 11.1739 14.2313C11.1678 14.2072 11.1595 14.1823 11.1587 14.1573C11.1542 14.0297 11.1473 13.9027 11.1488 13.775C11.1519 13.4753 11.1754 13.1755 11.1261 12.8773C11.0926 12.674 11.0706 12.4693 11.0342 12.2668C11.0015 12.0807 10.9286 11.9102 10.7972 11.7724C10.6202 11.5863 10.3992 11.5061 10.1486 11.4952C9.94502 11.4866 9.74375 11.5022 9.544 11.5325C9.12931 11.5964 8.71537 11.6649 8.3022 11.7381C7.94447 11.8012 7.59054 11.8884 7.22902 11.9281C6.91686 11.9616 6.6085 11.9624 6.30014 11.8884C5.91431 11.7965 5.5262 11.7163 5.14113 11.6229C4.87379 11.5582 4.61024 11.5505 4.34213 11.6127C4.09909 11.6696 3.87048 11.7545 3.6806 11.9265C3.65706 11.9483 3.64035 11.9803 3.62743 12.0114C3.61832 12.0332 3.60997 12.0441 3.58642 12.0394C3.57427 12.0371 3.56212 12.0348 3.54996 12.034C3.29401 12.0075 3.03882 11.981 2.78286 11.9546C2.47298 11.9219 2.1631 11.8892 1.85323 11.8572C1.57297 11.8284 1.29347 11.8004 1.01321 11.7708C0.777763 11.7459 0.543075 11.721 0.307628 11.6953C0.204335 11.6836 0.101801 11.6688 -0.000732422 11.6556C-0.000732422 11.566 -0.000732422 11.4765 -0.000732422 11.3862C0.0015461 11.3698 0.00458413 11.3535 0.00458413 11.3371C0.00838167 11.179 0.0129387 11.0202 0.0152172 10.8621C0.0243313 10.1567 0.0326859 9.45201 0.0425595 8.74656C0.0455975 8.53477 0.0516736 8.32298 0.0569901 8.11197C0.0585092 8.05357 0.0600282 8.05201 0.117751 8.0489C0.278766 8.03877 0.439782 8.02943 0.600797 8.01931C0.915993 7.99828 1.23119 7.97648 1.54638 7.95468C1.77424 7.93911 2.00209 7.92509 2.22994 7.90952C2.49729 7.89083 2.76463 7.87214 3.03198 7.85268C3.15198 7.84411 3.27199 7.83321 3.39123 7.82153C3.43984 7.81686 3.48768 7.79739 3.53553 7.79895C3.6244 7.80284 3.70642 7.83477 3.77706 7.89239C3.85073 7.95312 3.9206 8.01853 3.99731 8.07381C4.0444 8.10729 4.09985 8.13533 4.15529 8.14778C4.30264 8.17971 4.45226 8.16881 4.60036 8.15401C4.62998 8.1509 4.66036 8.13532 4.68619 8.1182C4.74239 8.08082 4.79556 8.03877 4.84948 7.99828C5.05683 7.84256 5.23531 7.65957 5.35911 7.4252C5.40772 7.3341 5.43734 7.23911 5.44114 7.13399C5.45405 6.77971 5.47 6.42543 5.48367 6.07114C5.48367 6.05246 5.47456 6.02754 5.46089 6.0143C5.40164 5.95357 5.34012 5.89595 5.27936 5.83833C5.23075 5.79239 5.20949 5.73711 5.21329 5.66936C5.22012 5.56269 5.22468 5.45679 5.22924 5.35012C5.23227 5.27615 5.22316 5.26836 5.15253 5.25513C5.09784 5.245 5.0424 5.23332 4.98771 5.22087C4.94366 5.21074 4.91708 5.18193 4.90796 5.13599C4.8829 5.0044 4.8829 4.87125 4.89657 4.73811C4.90037 4.70073 4.91024 4.66336 4.92391 4.6291C4.95353 4.55435 5.00138 4.52242 5.07961 4.52476C5.14265 4.52709 5.20493 4.53332 5.26797 4.53566C5.48443 4.54345 5.69026 4.50685 5.87406 4.38149C6.02748 4.27637 6.17862 4.16736 6.3328 4.0638C6.40267 4.0163 6.47331 3.96647 6.56141 3.95635C6.57204 3.95479 6.58496 3.93766 6.58875 3.9252C6.59483 3.90729 6.59635 3.88627 6.59635 3.86681C6.59635 3.57949 6.59635 3.29217 6.59407 3.00485C6.59407 2.99472 6.5804 2.97604 6.57129 2.97448C6.51812 2.96514 6.48698 2.92776 6.45432 2.88883C6.40268 2.82732 6.35255 2.76347 6.29179 2.71208C6.1528 2.59372 5.98039 2.55713 5.80722 2.53922C5.49506 2.50729 5.18518 2.53377 4.87834 2.60073C4.58897 2.6638 4.29808 2.72454 4.00795 2.78449C3.91453 2.80396 3.81959 2.82264 3.72313 2.8024C3.54085 2.76425 3.41705 2.64667 3.32743 2.48861C3.20743 2.27682 3.15654 2.04478 3.14363 1.80262C3.1292 1.52465 3.25224 1.31519 3.46566 1.16024C3.74136 0.960131 4.05504 0.923535 4.37859 0.971032C4.51226 0.990498 4.6429 1.038 4.77353 1.07848C5.0424 1.16258 5.30974 1.25679 5.59228 1.2786C5.84064 1.29806 6.08216 1.27159 6.29482 1.11975C6.47103 0.994391 6.64344 0.863579 6.81813 0.735882C6.93205 0.653346 7.0475 0.574703 7.17965 0.523312C7.26851 0.489052 7.3513 0.490609 7.43864 0.524091C7.56928 0.573924 7.68472 0.65101 7.79713 0.732767C7.96194 0.853457 8.12448 0.976483 8.29005 1.09562C8.44575 1.20774 8.61664 1.27392 8.80955 1.27704C8.94778 1.27937 9.08677 1.28483 9.22121 1.24979C9.4407 1.19372 9.6602 1.13377 9.87666 1.06603C10.0908 0.999063 10.3035 0.939108 10.5306 0.953123C10.7805 0.968696 11.0144 1.03021 11.2096 1.19917C11.3934 1.35957 11.4952 1.5628 11.4777 1.81508C11.4716 1.90696 11.4564 1.99884 11.439 2.08916C11.3995 2.29005 11.3304 2.47771 11.1883 2.62721C11.0592 2.76347 10.9043 2.83277 10.7152 2.80006C10.621 2.78371 10.5268 2.76736 10.4326 2.74867C10.0924 2.68171 9.7521 2.61008 9.41108 2.54778C9.16804 2.50418 8.92424 2.50885 8.6812 2.55869C8.48448 2.59917 8.31208 2.67937 8.19207 2.85223C8.14802 2.9153 8.10701 2.98382 8.01207 2.96747V3.02353C8.01207 3.30385 8.01359 3.58416 8.01055 3.86447C8.01055 3.92598 8.01359 3.97504 8.07663 4.00229C8.09562 4.01085 8.11081 4.02954 8.126 4.04589C8.18828 4.11286 8.25132 4.17904 8.31132 4.24834C8.41157 4.36436 8.52626 4.46091 8.66829 4.51697C8.80576 4.57148 8.94475 4.62131 9.0845 4.66959C9.11867 4.68127 9.15589 4.68516 9.19235 4.68594C9.31539 4.68827 9.43843 4.68594 9.56071 4.68905C9.61919 4.69061 9.65413 4.72331 9.66856 4.78405C9.71109 4.96236 9.71033 5.14222 9.6921 5.32287C9.68603 5.38204 9.65185 5.42331 9.59337 5.43811C9.56299 5.44589 9.53185 5.44979 9.50071 5.45368C9.44146 5.46147 9.43463 5.46847 9.43007 5.52921C9.42172 5.64523 9.41184 5.76124 9.40729 5.87726C9.40425 5.9559 9.37311 6.01586 9.31691 6.06725C9.23184 6.14434 9.14905 6.22376 9.06399 6.30084C9.045 6.31797 9.03665 6.3351 9.03665 6.36158C9.03741 6.6559 9.03893 6.95023 9.03665 7.24456C9.03437 7.50073 9.10272 7.73744 9.21741 7.96091C9.30627 8.13377 9.43387 8.27003 9.61843 8.33232C9.72704 8.36892 9.8402 8.3915 9.95261 8.41174C10.5268 8.51686 11.0881 8.66714 11.6296 8.89295C12.0671 9.07515 12.4803 9.30017 12.8532 9.60073C13.0993 9.79851 13.3127 10.0228 13.4456 10.3186C13.5671 10.5888 13.6696 10.8652 13.7304 11.1572C13.8094 11.5357 13.8618 11.9188 13.8945 12.3042C13.9332 12.7566 13.9651 13.209 13.9977 13.6621C14.0038 13.7517 14.0015 13.8412 14.0015 13.9308C14.0015 14.0304 13.9628 14.1036 13.8633 14.1317C13.842 14.1379 13.8223 14.1472 13.8018 14.155C13.4129 14.3092 13.0149 14.426 12.5987 14.4672C12.5296 14.4743 12.4613 14.4859 12.3929 14.4953L12.3899 14.5Z" fill="#101010"/>
</g>
<defs>
<clipPath id="clip0_108_6616">
<rect width="14" height="14" fill="white" transform="translate(0 0.5)"/>
</clipPath>
</defs>
</svg>
