<svg width="21" height="19" viewBox="0 0 21 19" fill="none" xmlns="http://www.w3.org/2000/svg">
<path d="M10.5435 17.1084C9.62363 16.3197 8.74251 15.5354 7.82829 14.7892C6.97213 14.0904 6.07014 13.4439 5.20685 12.7526C3.86175 11.6752 2.7275 10.4338 2.11938 8.8113C1.59071 7.40036 1.48477 5.96965 1.98645 4.53054C2.6292 2.68816 4.20146 1.61871 6.20663 1.65627C7.92812 1.68889 9.22229 2.47763 10.1885 3.82433C10.2934 3.97061 10.3886 4.12332 10.4777 4.25725C10.8088 3.85349 11.1037 3.42946 11.4633 3.06573C12.9627 1.54755 15.2954 1.20605 17.135 2.22262C18.2524 2.83988 18.8809 3.81691 19.159 5.00052C19.6526 7.10137 19.0969 8.9902 17.8287 10.71C17.0652 11.7454 16.0812 12.5682 15.0565 13.3451C13.4853 14.5356 11.9069 15.7173 10.544 17.1084H10.5435Z" stroke="#101010" stroke-width="2" stroke-miterlimit="10"/>
</svg>
