<svg width="21" height="19" viewBox="0 0 21 19" fill="none" xmlns="http://www.w3.org/2000/svg">
<path d="M10.5435 17.1085C11.9065 15.7178 13.4848 14.5362 15.0561 13.3452C16.0813 12.5683 17.0648 11.7449 17.8283 10.7101C19.097 8.99027 19.6521 7.10143 19.1586 5.00059C18.8805 3.81648 18.2515 2.83994 17.1346 2.22269C15.295 1.20611 12.9623 1.54761 11.4629 3.06579C11.1033 3.42952 10.8084 3.85355 10.4773 4.25731C10.3882 4.12338 10.293 3.97067 10.188 3.82439C9.22188 2.47769 7.92771 1.68895 6.20622 1.65633C4.20105 1.61828 2.62879 2.68773 1.98655 4.5306C1.48487 5.96971 1.59081 7.40042 2.11948 8.81137C2.7276 10.4338 3.86184 11.6753 5.20695 12.7526C6.07023 13.444 6.97172 14.0899 7.82839 14.7892C8.74261 15.5355 9.62322 16.3198 10.5435 17.1085Z" fill="#F62525"/>
<path d="M10.5435 17.1085C9.62373 16.3198 8.74261 15.5355 7.82839 14.7892C6.97223 14.0904 6.07023 13.444 5.20695 12.7526C3.86184 11.6753 2.7276 10.4338 2.11948 8.81136C1.59081 7.40042 1.48487 5.96971 1.98655 4.5306C2.6293 2.68822 4.20156 1.61877 6.20673 1.65633C7.92822 1.68895 9.22239 2.47769 10.1886 3.82439C10.2935 3.97067 10.3887 4.12338 10.4778 4.25731C10.8089 3.85355 11.1038 3.42952 11.4634 3.06579C12.9628 1.54761 15.2955 1.20611 17.1351 2.22269C18.2525 2.83994 18.881 3.81698 19.1591 5.00059C19.6527 7.10143 19.097 8.99027 17.8288 10.7101C17.0653 11.7454 16.0813 12.5683 15.0566 13.3452C13.4854 14.5357 11.907 15.7173 10.5441 17.1085H10.5435Z" stroke="#101010" stroke-width="2" stroke-miterlimit="10"/>
</svg>
