<svg width="21" height="21" viewBox="0 0 21 21" fill="none" xmlns="http://www.w3.org/2000/svg">
<g clip-path="url(#clip0_130_550)">
<path d="M21 0.5H0V20.5H3.83238L6.91913 16.3109C7.48145 15.5477 7.78645 14.6121 7.78645 13.6499V7.43977C7.78645 7.20476 8.06354 7.08725 8.22514 7.25402L10.0683 9.52057H13.4686L15.4977 7.21445C15.6616 7.05737 15.9294 7.17649 15.9294 7.40706V13.4641L15.9988 20.5H21V0.5Z" fill="#EBEBEB"/>
<path d="M15.9293 7.40705C15.9293 7.17648 15.6615 7.05736 15.4976 7.21444L13.4685 9.52056H10.0682L8.22504 7.25401C8.06382 7.08724 7.78634 7.20434 7.78634 7.43976V13.6499C7.78634 14.6121 7.48135 15.5477 6.91903 16.3109L3.83228 20.5H15.9991L15.9297 13.4641V7.40705H15.9293Z" fill="#1E1E1E"/>
</g>
<defs>
<clipPath id="clip0_130_550">
<rect y="0.5" width="21" height="20" rx="10" fill="white"/>
</clipPath>
</defs>
</svg>
