<svg width="16" height="17" viewBox="0 0 16 17" fill="none" xmlns="http://www.w3.org/2000/svg">
<path d="M4.66357 7.7455C4.68855 6.45408 5.1096 5.44806 5.93744 4.62041C6.88659 3.6679 7.84288 2.71896 8.7956 1.76645C9.51638 1.04583 10.3835 0.617736 11.3933 0.521415C12.4209 0.421527 13.3737 0.671248 14.2193 1.26701C15.1114 1.89845 15.6787 2.7582 15.9035 3.82487C16.1533 5.0164 15.9214 6.12587 15.2113 7.12476C14.8081 7.68842 14.2907 8.14862 13.7876 8.61952C13.4736 8.91562 12.9419 8.87638 12.6315 8.56601C12.3175 8.25564 12.2746 7.73479 12.5672 7.41016C12.8563 7.08552 13.1738 6.78229 13.4843 6.47548C13.809 6.15441 14.0516 5.77983 14.1658 5.33747C14.4798 4.11383 13.9053 2.92944 12.7456 2.43C11.8964 2.06255 10.8152 2.20882 10.0445 2.97939C9.08106 3.9426 8.1105 4.89867 7.15421 5.86902C6.19078 6.84293 6.1658 8.26991 7.06857 9.3009C7.16848 9.41506 7.27196 9.53992 7.32548 9.67905C7.47892 10.0715 7.31835 10.5138 6.97223 10.7243C6.60827 10.9455 6.16224 10.8777 5.85894 10.5602C5.29159 9.96445 4.91692 9.2688 4.75635 8.46255C4.69926 8.18786 4.68498 7.90246 4.66714 7.74193L4.66357 7.7455Z" fill="#101010"/>
<path d="M11.3005 9.38653C11.2791 10.5781 10.8509 11.5769 10.0266 12.4082C9.0953 13.3428 8.15685 14.2739 7.22197 15.2086C6.61537 15.8186 5.89459 16.2289 5.05248 16.4073C4.17826 16.5928 3.32545 16.5 2.50832 16.1361C1.63767 15.7509 0.970412 15.1408 0.517245 14.3096C0.074783 13.5069 -0.0822197 12.6472 0.0391005 11.7375C0.171126 10.7457 0.627861 9.91808 1.33794 9.22243C1.57701 8.99055 1.80538 8.74796 2.04445 8.51608C2.45123 8.12009 3.03286 8.13793 3.37184 8.55532C3.63232 8.87282 3.63589 9.35443 3.35757 9.65409C3.02929 10.0073 2.6796 10.339 2.34775 10.6887C1.45569 11.634 1.53419 13.218 2.47621 14.1063C3.37898 14.9589 4.92759 15.0445 5.93384 14.0242C6.87942 13.0646 7.83928 12.1263 8.78843 11.1703C9.77327 10.1785 9.80181 8.72656 8.8598 7.69556C8.58504 7.3959 8.49227 7.06769 8.65284 6.68954C8.89191 6.12232 9.64838 5.99746 10.0873 6.45053C10.8794 7.27461 11.2791 8.26279 11.2933 9.38653H11.3005Z" fill="#101010"/>
</svg>
