<svg width="167" height="29" viewBox="0 0 167 29" fill="none" xmlns="http://www.w3.org/2000/svg">
<path d="M43.3988 7.26082H46.1734L46.3712 9.10063C47.1081 7.70099 48.7006 6.88989 50.5454 6.88989C53.9579 6.88989 56.2132 9.3677 56.2132 13.171C56.2132 16.9742 54.1508 19.6993 50.5454 19.6993C48.7303 19.6993 47.1576 18.9872 46.3959 17.7606V25.0012H43.4038V7.26082H43.3988ZM49.8283 17.0039C51.9401 17.0039 53.1914 15.4806 53.1914 13.3243C53.1914 11.168 51.9401 9.61994 49.8283 9.61994C47.7164 9.61994 46.4157 11.1432 46.4157 13.3243C46.4157 15.5054 47.7659 17.0039 49.8283 17.0039Z" fill="#F5F5F5"/>
<path d="M69.0226 7.26086V19.3829H66.2481L66.0255 17.7656C65.2886 18.918 63.7208 19.7043 62.0986 19.7043C59.2993 19.7043 57.6573 17.8151 57.6573 14.8476V7.26581H60.6495V13.7942C60.6495 16.0989 61.5595 17.0336 63.2262 17.0336C65.1155 17.0336 66.0255 15.9307 66.0255 13.6211V7.26581H69.0177L69.0226 7.26086Z" fill="#F5F5F5"/>
<path d="M79.2356 9.98599H78.1327C75.9714 9.98599 74.6212 11.1383 74.6212 13.4975V19.3878H71.629V7.28562H74.453L74.6261 9.05124C75.1405 7.84943 76.2929 7.03833 77.9151 7.03833C78.3305 7.03833 78.7509 7.08779 79.2405 7.21143V9.98599H79.2356Z" fill="#F5F5F5"/>
<path d="M88.3901 9.98599H87.2872C85.1259 9.98599 83.7757 11.1383 83.7757 13.4975V19.3878H80.7836V7.28562H83.6076L83.7807 9.05124C84.295 7.84943 85.4474 7.03833 87.0696 7.03833C87.485 7.03833 87.9054 7.08779 88.3951 7.21143V9.98599H88.3901Z" fill="#F5F5F5"/>
<path d="M87.9005 17.7408C87.9005 16.6626 88.8105 15.7773 89.8887 15.7773C90.9669 15.7773 91.8769 16.6626 91.8769 17.7408C91.8769 18.819 90.9669 19.6795 89.8887 19.6795C88.8105 19.6795 87.9005 18.7942 87.9005 17.7408Z" fill="#F5F5F5"/>
<path d="M96.4418 15.7032C96.4665 16.7566 97.2529 17.4194 98.6278 17.4194C100.003 17.4194 100.789 16.8555 100.789 15.9703C100.789 15.357 100.468 14.9168 99.3894 14.6695L97.2034 14.1552C95.0174 13.6655 93.9639 12.6319 93.9639 10.6932C93.9639 8.31426 95.9769 6.88989 98.7761 6.88989C101.575 6.88989 103.341 8.46264 103.366 10.8168H100.517C100.492 9.78809 99.8049 9.12536 98.6525 9.12536C97.5001 9.12536 96.788 9.66445 96.788 10.5745C96.788 11.2619 97.327 11.7021 98.3607 11.9494L100.547 12.4637C102.584 12.9286 103.613 13.8634 103.613 15.7279C103.613 18.181 101.526 19.7043 98.5338 19.7043C95.5416 19.7043 93.6029 18.087 93.6029 15.7032H96.4517H96.4418Z" fill="#F5F5F5"/>
<path d="M106.526 19.3828V9.76338H104.197V7.26084H106.526V3.4823H109.518V7.26084H111.872V9.76338H109.518V19.3828H106.526Z" fill="#F5F5F5"/>
<path d="M120.859 9.98599H119.756C117.595 9.98599 116.244 11.1383 116.244 13.4975V19.3878H113.252V7.28562H116.076L116.249 9.05124C116.764 7.84943 117.916 7.03833 119.538 7.03833C119.954 7.03833 120.374 7.08779 120.864 7.21143V9.98599H120.859Z" fill="#F5F5F5"/>
<path d="M121.279 13.3243C121.279 9.52108 123.757 6.8949 127.318 6.8949C130.879 6.8949 133.258 9.32325 133.258 13.1018V14.0118L124.128 14.0365C124.351 16.1731 125.478 17.2513 127.466 17.2513C129.108 17.2513 130.192 16.6133 130.533 15.4609H133.307C132.793 18.1118 130.582 19.7043 127.417 19.7043C123.812 19.7043 121.279 17.0782 121.279 13.3243ZM124.202 12.1225H130.29C130.29 10.4558 129.138 9.34798 127.348 9.34798C125.557 9.34798 124.499 10.3075 124.207 12.1225H124.202Z" fill="#F5F5F5"/>
<path d="M134.509 15.9258C134.509 13.6903 136.126 12.2956 139 12.0731L142.63 11.8011V11.529C142.63 9.88707 141.651 9.22434 140.127 9.22434C138.362 9.22434 137.378 9.96125 137.378 11.2373H134.826C134.826 8.61107 136.987 6.8949 140.276 6.8949C143.565 6.8949 145.553 8.66052 145.553 12.0236V19.3878H142.927L142.704 17.5975C142.19 18.8487 140.543 19.7093 138.654 19.7093C136.077 19.7093 134.504 18.2107 134.504 15.9308L134.509 15.9258ZM142.655 14.4767V13.8387L140.127 14.0365C138.263 14.2096 137.551 14.8229 137.551 15.8022C137.551 16.9051 138.288 17.4441 139.638 17.4441C141.478 17.4441 142.655 16.3412 142.655 14.4767Z" fill="#F5F5F5"/>
<path d="M148.006 19.3829V7.26088H150.756L151.003 8.68525C151.616 7.68127 152.843 6.8949 154.584 6.8949C156.424 6.8949 157.7 7.80491 158.338 9.19961C158.951 7.79997 160.375 6.8949 162.215 6.8949C165.158 6.8949 166.78 8.66052 166.78 11.4598V19.3878H163.813V12.2462C163.813 10.5053 162.878 9.59527 161.458 9.59527C160.039 9.59527 158.906 10.53 158.906 12.5182V19.3878H155.914V12.2215C155.914 10.53 155.004 9.62 153.585 9.62C152.165 9.62 151.008 10.5547 151.008 12.5182V19.3878H148.016L148.006 19.3829Z" fill="#F5F5F5"/>
<path d="M25.8612 0.5H7.62632C3.4175 0.5 0 3.9175 0 8.12632V27.7658C0 28.2703 0.524248 28.6017 0.979255 28.384L6.67179 25.6441L6.6075 25.5699C6.80038 25.5946 6.99327 25.6194 7.1911 25.6293C7.08229 25.5501 6.97843 25.476 6.87951 25.3919C4.85671 23.7548 4.23849 20.7973 5.49965 18.7992C6.03874 17.9436 6.77565 17.2265 7.29496 16.7764C8.78362 15.4905 9.31282 14.0612 9.98049 12.2511L10.0349 12.1027C10.208 11.6378 10.6284 11.3163 11.118 11.2768C11.6076 11.2372 12.0824 11.4795 12.3297 11.9098C13.5661 14.0464 14.9015 15.0899 16.4149 15.0899H16.4248C18.2052 15.0899 20.05 13.8189 20.9205 11.9988C21.1331 11.5537 21.603 11.2669 22.0778 11.2768C22.5723 11.2768 23.0174 11.5686 23.2252 12.0186C23.7247 13.1067 24.5803 14.4371 25.4557 15.4955C25.9058 16.0345 25.8316 16.8358 25.2925 17.2858C24.7534 17.7359 23.9522 17.6617 23.5021 17.1226C22.9581 16.4648 22.4289 15.7329 21.964 14.9959C20.5198 16.6379 18.4822 17.6469 16.405 17.6419C14.585 17.637 12.9578 16.816 11.5483 15.2037C10.9845 16.4302 10.2426 17.6023 8.96167 18.7102C8.41269 19.185 7.94779 19.6993 7.65599 20.1642C7.03778 21.1435 7.58181 22.6915 8.48193 23.4235C9.68869 24.4027 12.2357 25.5007 17.5722 25.649H20.1291C20.3369 25.6441 20.5495 25.6392 20.7622 25.6293C20.8512 25.6293 20.9402 25.6293 21.0293 25.649H25.8612C30.075 25.649 33.4876 22.2316 33.4876 18.0227V8.12632C33.4876 3.91256 30.0701 0.5 25.8612 0.5ZM12.5918 22.4096C12.0676 22.4096 11.6373 21.7568 11.6373 20.9556C11.6373 20.1543 12.0626 19.5015 12.5918 19.5015C13.121 19.5015 13.5464 20.1543 13.5464 20.9556C13.5464 21.7568 13.121 22.4096 12.5918 22.4096ZM16.7463 22.4096C16.222 22.4096 15.7917 21.7568 15.7917 20.9556C15.7917 20.1543 16.2171 19.5015 16.7463 19.5015C17.2754 19.5015 17.7008 20.1543 17.7008 20.9556C17.7008 21.7568 17.2754 22.4096 16.7463 22.4096Z" fill="#F5F5F5"/>
</svg>
