<svg width="25" height="25" viewBox="0 0 25 25" fill="none" xmlns="http://www.w3.org/2000/svg">
<g clip-path="url(#clip0_354_841)">
<path d="M10.28 18.3901C10.65 18.3901 10.95 17.9289 10.95 17.3601C10.95 16.7912 10.65 16.3301 10.28 16.3301C9.90997 16.3301 9.61 16.7912 9.61 17.3601C9.61 17.9289 9.90997 18.3901 10.28 18.3901Z" fill="#F5F5F5"/>
<path d="M13.21 18.3901C13.58 18.3901 13.88 17.9289 13.88 17.3601C13.88 16.7912 13.58 16.3301 13.21 16.3301C12.84 16.3301 12.54 16.7912 12.54 17.3601C12.54 17.9289 12.84 18.3901 13.21 18.3901Z" fill="#F5F5F5"/>
<path d="M22.84 14.96C22.84 17.29 21.6 19.83 19.21 20.47C17.95 20.8 16.58 20.8 15.28 20.8H14.83C14.02 20.8 13.22 20.8 12.42 20.74C9.5 20.48 7.98 19.8 7.21 19.17C6.54 18.63 6.13 17.47 6.59 16.74C6.81 16.4 7.16 16.01 7.56 15.66C8.52 14.83 9.07 13.95 9.49 13.04C10.55 14.25 11.76 14.86 13.12 14.86C14.67 14.86 16.18 14.11 17.26 12.89C17.38 13.07 17.5 13.26 17.63 13.45C17.88 13.8 18.14 14.15 18.41 14.47C18.74 14.88 19.34 14.93 19.75 14.6C20.15 14.26 20.2 13.67 19.87 13.26C19.21 12.47 18.58 11.48 18.2 10.67C18.05 10.33 17.71 10.12 17.35 10.12C16.99 10.11 16.64 10.32 16.48 10.66C15.84 12.02 14.46 12.96 13.12 12.96C11.99 12.96 11 12.18 10.08 10.59C9.89 10.27 9.54 10.09 9.18 10.12C8.81 10.15 8.49 10.39 8.37 10.74L8.33 10.85C7.83 12.2 7.43 13.26 6.32 14.22C5.94 14.56 5.39 15.09 4.99 15.73C4.04 17.22 4.51 19.42 6.01 20.65C6.02 20.65 6.03 20.66 6.04 20.67C5.99 20.7 5.95 20.72 5.95 20.72C5.95 20.72 4.59 21.5 4.58 21.5L2.36 22.79C2.3 22.82 2.24 22.84 2.17 22.84C1.95 22.84 1.74 22.62 1.74 22.32V7.49999C1.74 4.31999 3.9 1.73999 6.55 1.73999H18.04C20.69 1.73999 22.84 4.31999 22.84 7.49999V14.96Z" fill="#F5F5F5"/>
<path d="M18.04 0H6.55C2.94 0 0 3.36 0 7.5V22.32C0 23.57 0.98 24.58 2.17 24.58C2.54 24.58 2.91 24.48 3.23 24.29L5.45 23.01L6.82 22.23L7.02 22.11L7.91 21.58C8.33 21.76 8.8 21.91 9.31 22.04C11.12 22.49 12.87 22.53 14.82 22.54C17.19 22.56 19.95 22.5 21.93 21.02C24.46 19.13 24.58 16.04 24.58 13.17V7.5C24.58 3.36 21.65 0 18.04 0ZM22.84 14.96C22.84 17.29 21.6 19.83 19.21 20.47C17.95 20.8 16.58 20.8 15.28 20.8H14.83C14.02 20.8 13.22 20.8 12.42 20.74C9.5 20.48 7.98 19.8 7.21 19.17C6.54 18.63 6.13 17.47 6.59 16.74C6.81 16.4 7.16 16.01 7.56 15.66C8.52 14.83 9.07 13.95 9.49 13.04C10.55 14.25 11.76 14.86 13.12 14.86C14.67 14.86 16.18 14.11 17.26 12.89C17.38 13.07 17.5 13.26 17.63 13.45C17.88 13.8 18.14 14.15 18.41 14.47C18.74 14.88 19.34 14.93 19.75 14.6C20.15 14.26 20.2 13.67 19.87 13.26C19.21 12.47 18.58 11.48 18.2 10.67C18.05 10.33 17.71 10.12 17.35 10.12C16.99 10.11 16.64 10.32 16.48 10.66C15.84 12.02 14.46 12.96 13.12 12.96C11.99 12.96 11 12.18 10.08 10.59C9.89 10.27 9.54 10.09 9.18 10.12C8.81 10.15 8.49 10.39 8.37 10.74L8.33 10.85C7.83 12.2 7.43 13.26 6.32 14.22C5.94 14.56 5.39 15.09 4.99 15.73C4.04 17.22 4.51 19.42 6.01 20.65C6.02 20.65 6.03 20.66 6.04 20.67C5.99 20.7 5.95 20.72 5.95 20.72C5.95 20.72 4.59 21.5 4.58 21.5L2.36 22.79C2.3 22.82 2.24 22.84 2.17 22.84C1.95 22.84 1.74 22.62 1.74 22.32V7.5C1.74 4.32 3.9 1.74 6.55 1.74H18.04C20.69 1.74 22.84 4.32 22.84 7.5V14.96Z" fill="#101010"/>
<path d="M18.04 1.73999H6.55C3.9 1.73999 1.74 4.31999 1.74 7.49999V22.32C1.74 22.62 1.95 22.84 2.17 22.84C2.24 22.84 2.3 22.82 2.36 22.79L4.58 21.5L5.95 20.72C5.95 20.72 5.99 20.7 6.04 20.67C6.03 20.67 6.02 20.65 6.01 20.65C4.51 19.42 4.04 17.22 4.99 15.73C5.39 15.09 5.94 14.56 6.32 14.22C7.43 13.26 7.83 12.2 8.33 10.85L8.37 10.74C8.49 10.39 8.81 10.15 9.18 10.12C9.54 10.09 9.89 10.27 10.08 10.59C11 12.18 11.99 12.96 13.12 12.96C14.46 12.96 15.84 12.02 16.48 10.66C16.64 10.32 16.99 10.11 17.35 10.12C17.71 10.12 18.05 10.33 18.2 10.67C18.58 11.48 19.21 12.47 19.87 13.26C20.2 13.67 20.15 14.26 19.75 14.6C19.34 14.93 18.74 14.88 18.41 14.47C18.14 14.15 17.88 13.8 17.63 13.45C17.5 13.26 17.38 13.07 17.26 12.89C16.18 14.11 14.67 14.86 13.12 14.86C11.76 14.86 10.55 14.25 9.49 13.04C9.07 13.95 8.52 14.83 7.56 15.66C7.16 16.01 6.81 16.4 6.59 16.74C6.13 17.47 6.54 18.63 7.21 19.17C7.98 19.8 9.5 20.48 12.42 20.74C13.22 20.79 14.02 20.8 14.83 20.8H15.28C16.58 20.8 17.95 20.8 19.21 20.47C21.6 19.83 22.84 17.29 22.84 14.96V7.49999C22.84 4.31999 20.69 1.73999 18.04 1.73999ZM10.28 18.39C9.91 18.39 9.61 17.93 9.61 17.36C9.61 16.79 9.91 16.33 10.28 16.33C10.65 16.33 10.95 16.79 10.95 17.36C10.95 17.93 10.65 18.39 10.28 18.39ZM13.21 18.39C12.84 18.39 12.54 17.93 12.54 17.36C12.54 16.79 12.84 16.33 13.21 16.33C13.58 16.33 13.88 16.79 13.88 17.36C13.88 17.93 13.58 18.39 13.21 18.39Z" fill="#F5F5F5"/>
<path d="M10.28 18.3901C10.65 18.3901 10.95 17.9289 10.95 17.3601C10.95 16.7912 10.65 16.3301 10.28 16.3301C9.90997 16.3301 9.61 16.7912 9.61 17.3601C9.61 17.9289 9.90997 18.3901 10.28 18.3901Z" fill="#101010"/>
<path d="M13.21 18.3901C13.58 18.3901 13.88 17.9289 13.88 17.3601C13.88 16.7912 13.58 16.3301 13.21 16.3301C12.84 16.3301 12.54 16.7912 12.54 17.3601C12.54 17.9289 12.84 18.3901 13.21 18.3901Z" fill="#101010"/>
</g>
<defs>
<clipPath id="clip0_354_841">
<rect width="24.58" height="24.58" fill="white"/>
</clipPath>
</defs>
</svg>
